<svg width="24" height="24" viewBox="0 0 24 24" fill="none" xmlns="http://www.w3.org/2000/svg">
<path d="M20.8188 6.45622L15.4188 1.0906C15.2031 0.874976 14.9 0.740601 14.5688 0.740601C13.9062 0.740601 13.3688 1.27498 13.3688 1.93123C13.3688 2.26248 13.5031 2.55935 13.7219 2.77498L11.4062 5.0781L16.8063 10.4437L19.1219 8.14373C19.3375 8.35935 19.6375 8.49373 19.9688 8.49373C20.6313 8.49373 21.1688 7.95935 21.1688 7.29998C21.1688 6.97185 21.0344 6.67185 20.8188 6.45622Z" fill="white"/>
<path d="M14.5688 0.740601H5.56876C4.24376 0.740601 3.16876 1.80623 3.16876 3.12498V19.825C3.16876 21.1406 4.24376 22.2093 5.56876 22.2093H18.7688C20.0938 22.2093 21.1688 21.1406 21.1688 19.825V7.29998H15.7688C15.1688 7.29998 14.5688 6.7031 14.5688 6.10623V0.740601Z" fill="white"/>
<path d="M14.5687 0.740601H13.3687V6.10623C13.3687 7.42498 14.4437 8.49373 15.7687 8.49373H21.1687V7.29998H15.7687C15.1687 7.29998 14.5687 6.7031 14.5687 6.10623V0.740601ZM11.5687 5.50935C11.5687 5.8406 11.3 6.10623 10.9687 6.10623H6.16873C5.83748 6.10623 5.56873 5.8406 5.56873 5.50935C5.56873 5.18123 5.83748 4.9156 6.16873 4.9156H10.9687C11.3 4.9156 11.5687 5.18123 11.5687 5.50935ZM11.5687 7.89685C11.5687 8.22498 11.3 8.49373 10.9687 8.49373H6.16873C5.83748 8.49373 5.56873 8.22498 5.56873 7.89685C5.56873 7.5656 5.83748 7.29998 6.16873 7.29998H10.9687C11.3 7.29998 11.5687 7.5656 11.5687 7.89685ZM18.7687 10.2812C18.7687 10.6094 18.5 10.8781 18.1687 10.8781H6.16873C5.83748 10.8781 5.56873 10.6094 5.56873 10.2812C5.56873 9.9531 5.83748 9.68435 6.16873 9.68435H18.1687C18.5 9.68435 18.7687 9.9531 18.7687 10.2812ZM18.7687 12.6687C18.7687 12.9969 18.5 13.2625 18.1687 13.2625H6.16873C5.83748 13.2625 5.56873 12.9969 5.56873 12.6687C5.56873 12.3375 5.83748 12.0718 6.16873 12.0718H18.1687C18.5 12.0718 18.7687 12.3375 18.7687 12.6687ZM18.7687 15.0531C18.7687 15.3812 18.5 15.65 18.1687 15.65H6.16873C5.83748 15.65 5.56873 15.3812 5.56873 15.0531C5.56873 14.7219 5.83748 14.4562 6.16873 14.4562H18.1687C18.5 14.4562 18.7687 14.7219 18.7687 15.0531ZM18.7687 17.4375C18.7687 17.7687 18.5 18.0343 18.1687 18.0343H6.16873C5.83748 18.0343 5.56873 17.7687 5.56873 17.4375C5.56873 17.1094 5.83748 16.8406 6.16873 16.8406H18.1687C18.5 16.8406 18.7687 17.1094 18.7687 17.4375Z" fill="#D9D9D9"/>
</svg>
