<svg width="35" height="35" viewBox="0 0 35 35" fill="none" xmlns="http://www.w3.org/2000/svg">
<path d="M34.2512 5.62218C33.9967 3.03439 31.9607 0.998118 29.3946 0.743581L21.8658 0.022401C20.1692 -0.126079 18.5362 0.467838 17.3274 1.67689L1.67602 17.3309C0.615634 18.3915 0.0217973 19.7702 0.00058951 21.255C-0.0206183 22.7398 0.530785 24.1185 1.59118 25.1791L9.81981 33.4091C10.8378 34.4485 12.2163 35 13.6584 35H13.7433C15.2278 34.9788 16.6063 34.3848 17.6667 33.3243L33.318 17.6702C34.5269 16.4612 35.1419 14.8068 34.9722 13.1523L34.2512 5.62218ZM31.07 15.4218L15.4186 31.0759C14.9521 31.5425 14.337 31.8183 13.7008 31.8183C13.0646 31.7759 12.5132 31.6062 12.0678 31.1607L3.8392 22.9307C3.41504 22.4853 3.18176 21.9126 3.18176 21.2974C3.20297 20.6611 3.45748 20.046 3.92405 19.5793L19.5754 3.92529C20.0632 3.43743 20.6782 3.18288 21.3356 3.18288C21.3993 3.18288 21.4841 3.1829 21.5477 3.20411L29.0765 3.90406C30.1581 4.01012 30.9852 4.83739 31.0912 5.91917L31.8123 13.4492C31.8759 14.1704 31.6002 14.8916 31.07 15.4218Z" fill="white"/>
<path d="M34.2512 5.62218C33.9967 3.03439 31.9607 0.998118 29.3946 0.743581L21.8658 0.022401C20.1692 -0.126079 18.5362 0.467838 17.3274 1.67689L1.67602 17.3309C0.615634 18.3915 0.0217973 19.7702 0.00058951 21.255C-0.0206183 22.7398 0.530785 24.1185 1.59118 25.1791L9.81981 33.4091C10.8378 34.4485 12.2163 35 13.6584 35H13.7433C15.2278 34.9788 16.6063 34.3848 17.6667 33.3243L33.318 17.6702C34.5269 16.4612 35.1419 14.8068 34.9722 13.1523L34.2512 5.62218ZM23.7958 8.01908C24.6653 7.1282 26.1074 7.1282 26.9769 8.01908C27.8676 8.88875 27.8676 10.3311 26.9769 11.2008C26.5528 11.6462 25.9589 11.8796 25.3863 11.8796C24.8137 11.8796 24.2199 11.6462 23.7958 11.2008C22.905 10.3311 22.905 8.88875 23.7958 8.01908Z" fill="white"/>
</svg>
